<?xml version="1.0" encoding="utf-8"?>
<!-- Generator: Adobe Illustrator 15.1.0, SVG Export Plug-In . SVG Version: 6.00 Build 0)  -->
<!DOCTYPE svg PUBLIC "-//W3C//DTD SVG 1.1//EN" "http://www.w3.org/Graphics/SVG/1.1/DTD/svg11.dtd">
<svg version="1.1" id="Layer_1" xmlns="http://www.w3.org/2000/svg" xmlns:xlink="http://www.w3.org/1999/xlink" x="0px" y="0px"
	 width="138.947px" height="138.947px" viewBox="0 0 138.947 138.947" enable-background="new 0 0 138.947 138.947"
	 xml:space="preserve">
<rect x="75.35" y="48.551" fill="#FFFFFF" width="23.03" height="67.437"/>
<path fill="#92D5EA" d="M100.65,118.257H73.081V46.282h27.569V118.257z M77.62,113.718h18.491V50.821H77.62V113.718z"/>
<rect x="38.951" y="47.551" fill="#FFFFFF" width="36.399" height="68.438"/>
<path fill="#92D5EA" d="M75.35,118.257H38.951l-2.27-2.27V47.551l2.27-2.269H75.35l2.27,2.269v68.438L75.35,118.257z
	 M41.221,113.718h31.86V49.82h-31.86V113.718z"/>
<rect x="57.152" y="22.076" fill="#FFFFFF" width="23.853" height="5.543"/>
<path fill="#92D5EA" d="M83.274,29.888H54.882V19.806h28.392V29.888z M59.421,25.349h19.314v-1.004H59.421V25.349z"/>
<polygon fill="#FFFFFF" points="57.152,27.152 38.951,48.55 75.351,48.55 "/>
<path fill="#92D5EA" d="M75.351,50.819h-36.4l-1.729-3.74l18.2-21.398h3.458L77.081,47.08L75.351,50.819z M43.86,46.281h26.58
	L57.151,30.655L43.86,46.281z"/>
<rect x="88.048" y="62.219" fill="#92D5EA" width="4.539" height="45.771"/>
<polygon fill="#FFFFFF" points="80.446,27.152 57.152,27.152 75.351,48.55 98.647,48.55 "/>
<path fill="#92D5EA" d="M98.647,50.819H75.351l-1.729-0.798l-18.2-21.398l1.729-3.74h23.294l1.728,0.799l18.202,21.398
	L98.647,50.819z M76.4,46.281h17.337l-14.34-16.859H62.061L76.4,46.281z"/>
</svg>
