<?xml version="1.0" encoding="utf-8"?>
<!-- Generator: Adobe Illustrator 15.1.0, SVG Export Plug-In . SVG Version: 6.00 Build 0)  -->
<!DOCTYPE svg PUBLIC "-//W3C//DTD SVG 1.1//EN" "http://www.w3.org/Graphics/SVG/1.1/DTD/svg11.dtd">
<svg version="1.1" id="Layer_1" xmlns="http://www.w3.org/2000/svg" xmlns:xlink="http://www.w3.org/1999/xlink" x="0px" y="0px"
	 width="163.486px" height="163.486px" viewBox="0 0 163.486 163.486" enable-background="new 0 0 163.486 163.486"
	 xml:space="preserve">
<g>
	<defs>
		<rect id="SVGID_1_" width="163.486" height="163.486"/>
	</defs>
	<clipPath id="SVGID_2_">
		<use xlink:href="#SVGID_1_"  overflow="visible"/>
	</clipPath>
	<path clip-path="url(#SVGID_2_)" fill="#D6E9ED" d="M81.743,163.486C36.598,163.486,0,126.889,0,81.743C0,36.597,36.598,0,81.743,0
		c45.146,0,81.743,36.597,81.743,81.743C163.486,126.889,126.889,163.486,81.743,163.486"/>
	<polygon clip-path="url(#SVGID_2_)" fill="#FFFFFF" points="55.194,106.904 41.417,36.135 56.626,34.04 60.782,75.357 
		66.925,35.188 80.146,37.131 68.034,108.486 	"/>
	<polygon clip-path="url(#SVGID_2_)" fill="#FFFFFF" points="95.013,108.486 84.189,35.188 98.634,34.041 101.92,75.418 
		107.507,36.135 121.928,38.415 108.593,108.486 	"/>
	<path clip-path="url(#SVGID_2_)" fill="#FFFFFF" d="M50.053,112.182c10.213,6.752,16.52,12.737,31.703,12.418
		c13.133-0.276,23.345-3.013,32.747-11.573l4.816,10.006c-4.701,8.078-16.842,14.353-30.655,15.809
		c-15.899,1.675-31.723-2.906-44.452-20.511L50.053,112.182z"/>
</g>
</svg>
