<?xml version="1.0" encoding="utf-8"?>
<!-- Generator: Adobe Illustrator 15.1.0, SVG Export Plug-In . SVG Version: 6.00 Build 0)  -->
<!DOCTYPE svg PUBLIC "-//W3C//DTD SVG 1.1//EN" "http://www.w3.org/Graphics/SVG/1.1/DTD/svg11.dtd">
<svg version="1.1" id="Layer_1" xmlns="http://www.w3.org/2000/svg" xmlns:xlink="http://www.w3.org/1999/xlink" x="0px" y="0px"
	 width="163.486px" height="163.486px" viewBox="0 0 163.486 163.486" enable-background="new 0 0 163.486 163.486"
	 xml:space="preserve">
<path fill="#D6E9ED" d="M82.13,159.294c-42.896,0-77.673-34.775-77.673-77.673S39.233,3.947,82.13,3.947
	c42.898,0,77.674,34.775,77.674,77.673S125.028,159.294,82.13,159.294"/>
<rect x="17.967" y="91.326" transform="matrix(0.7071 -0.7071 0.7071 0.7071 -39.8338 94.5169)" fill="#BCE5EE" width="152.414" height="8.031"/>
<rect x="34.325" y="101.193" transform="matrix(0.7071 -0.7071 0.7071 0.7071 -43.2365 106.0331)" fill="#BCE5EE" width="144.1" height="8.03"/>
<rect x="58.342" y="112.817" transform="matrix(0.7071 -0.7071 0.7071 0.7071 -48.0592 117.6388)" fill="#BCE5EE" width="119.264" height="8.032"/>
<rect x="89.788" y="123.337" transform="matrix(0.7034 -0.7108 0.7108 0.7034 -51.9009 130.3332)" fill="#BCE5EE" width="80.845" height="8.031"/>
<rect x="-2.962" y="67.544" transform="matrix(0.7071 -0.7071 0.7071 0.7071 -29.1471 72.7518)" fill="#BCE5EE" width="152.415" height="8.032"/>
<rect x="-11.935" y="57.462" transform="matrix(0.7071 -0.7071 0.7071 0.7071 -25.5315 61.3175)" fill="#BCE5EE" width="146.371" height="8.032"/>
<rect x="-14.445" y="45.902" transform="matrix(0.7071 -0.7071 0.7071 0.7071 -20.7726 49.6852)" fill="#BCE5EE" width="128.067" height="8.03"/>
<rect x="-9.217" y="34.163" transform="matrix(0.7071 -0.7071 0.7071 0.7071 -15.5723 38.7627)" fill="#BCE5EE" width="96.442" height="8.031"/>
<path fill="#F26539" d="M82.13-0.245c-45.213,0-81.864,36.652-81.864,81.865c0,45.212,36.651,81.865,81.864,81.865
	s81.865-36.652,81.865-81.865C163.995,36.408,127.343-0.245,82.13-0.245 M82.13,156.312c-41.25,0-74.69-33.439-74.69-74.691
	C7.439,40.37,40.88,6.93,82.13,6.93c41.251,0,74.691,33.44,74.691,74.691C156.821,122.872,123.381,156.312,82.13,156.312"/>
<path fill="#FFFFFF" d="M98.972,82.271c0,14.728-7.54,19.326-16.842,19.326c-9.301,0-16.841-4.599-16.841-19.326
	s7.54-34.005,16.841-34.005C91.432,48.265,98.972,67.543,98.972,82.271"/>
<path fill="none" stroke="#92D5EA" stroke-width="4" stroke-miterlimit="10" d="M98.972,82.271c0,14.728-7.54,19.326-16.842,19.326
	c-9.301,0-16.841-4.599-16.841-19.326s7.54-34.005,16.841-34.005C91.432,48.265,98.972,67.543,98.972,82.271z"/>
<path fill="none" stroke="#92D5EA" stroke-width="4" stroke-miterlimit="10" d="M84.601,56.844c1.975,2.701,3.689,6.19,5.043,10.029
	"/>
<path fill="#FFFFFF" d="M101.585,80.771H62.676c0,16.943,6.242,24.021,14.678,25.796l1.213,10.386
	c-4.872,0.464-8.409,1.855-8.409,3.502c0,2.024,5.361,3.666,11.974,3.666c6.611,0,11.973-1.642,11.973-3.666
	c0-1.646-3.538-3.038-8.41-3.502l1.214-10.386C95.343,104.792,101.585,97.714,101.585,80.771"/>
<path fill="none" stroke="#92D5EA" stroke-width="4" stroke-miterlimit="10" d="M101.585,80.771H62.676
	c0,16.943,6.242,24.021,14.678,25.796l1.213,10.386c-4.872,0.464-8.409,1.855-8.409,3.502c0,2.024,5.361,3.666,11.974,3.666
	c6.611,0,11.973-1.642,11.973-3.666c0-1.646-3.538-3.038-8.41-3.502l1.214-10.386C95.343,104.792,101.585,97.714,101.585,80.771z"/>
<path fill="none" stroke="#92D5EA" stroke-width="4" stroke-miterlimit="10" d="M87.687,99.454c3.75-3.167,5.735-6.549,6.297-14.321
	"/>
<rect x="5.818" y="79.13" transform="matrix(0.7071 -0.7071 0.7071 0.7071 -33.9925 83.7329)" fill="#F26539" width="156.522" height="7.539"/>
</svg>
