<?xml version="1.0" encoding="utf-8"?>
<!-- Generator: Adobe Illustrator 15.1.0, SVG Export Plug-In . SVG Version: 6.00 Build 0)  -->
<!DOCTYPE svg PUBLIC "-//W3C//DTD SVG 1.1//EN" "http://www.w3.org/Graphics/SVG/1.1/DTD/svg11.dtd">
<svg version="1.1" id="Layer_1" xmlns="http://www.w3.org/2000/svg" xmlns:xlink="http://www.w3.org/1999/xlink" x="0px" y="0px"
	 width="163.486px" height="163.486px" viewBox="0 0 163.486 163.486" enable-background="new 0 0 163.486 163.486"
	 xml:space="preserve">
<g>
	<defs>
		<rect id="SVGID_1_" width="163.486" height="163.486"/>
	</defs>
	<clipPath id="SVGID_2_">
		<use xlink:href="#SVGID_1_"  overflow="visible"/>
	</clipPath>
	<path clip-path="url(#SVGID_2_)" fill="#F0DBCE" d="M81.743,163.486C36.598,163.486,0,126.889,0,81.743C0,36.597,36.598,0,81.743,0
		c45.146,0,81.743,36.597,81.743,81.743C163.486,126.889,126.889,163.486,81.743,163.486"/>
	<path clip-path="url(#SVGID_2_)" fill="#FFFFFF" d="M102.131,118.137c0,5.461-7.282,27.711,0,27.711
		S102.131,123.598,102.131,118.137"/>
	<path clip-path="url(#SVGID_2_)" fill="none" stroke="#E8B3A3" stroke-width="5" stroke-miterlimit="10" d="M102.131,118.137
		c0,5.461-7.282,27.711,0,27.711S102.131,123.598,102.131,118.137z"/>
	<path clip-path="url(#SVGID_2_)" fill="#FFFFFF" d="M82.743,21.876c-15.022,0-27.2,12.178-27.2,27.2v10.001
		c-3.13-2.077-7.39-1.737-10.149,1.022c-3.147,3.147-3.147,8.25,0,11.398l10.149,10.149v45.01h54.4v-77.58
		C109.943,34.054,97.765,21.876,82.743,21.876"/>
	<path clip-path="url(#SVGID_2_)" fill="none" stroke="#E8B3A3" stroke-width="5" stroke-miterlimit="10" d="M82.743,21.876
		c-15.022,0-27.2,12.178-27.2,27.2v10.001c-3.13-2.077-7.39-1.737-10.149,1.022c-3.147,3.147-3.147,8.25,0,11.398l10.149,10.149
		v45.01h54.4v-77.58C109.943,34.054,97.765,21.876,82.743,21.876z"/>
	<line clip-path="url(#SVGID_2_)" fill="#FFFFFF" x1="63.443" y1="119.41" x2="101.11" y2="119.41"/>
	
		<line clip-path="url(#SVGID_2_)" fill="none" stroke="#E8B3A3" stroke-width="5" stroke-miterlimit="10" x1="63.443" y1="119.41" x2="101.11" y2="119.41"/>
</g>
</svg>
