<?xml version="1.0" encoding="utf-8"?>
<!-- Generator: Adobe Illustrator 15.1.0, SVG Export Plug-In . SVG Version: 6.00 Build 0)  -->
<!DOCTYPE svg PUBLIC "-//W3C//DTD SVG 1.1//EN" "http://www.w3.org/Graphics/SVG/1.1/DTD/svg11.dtd">
<svg version="1.1" id="Layer_1" xmlns="http://www.w3.org/2000/svg" xmlns:xlink="http://www.w3.org/1999/xlink" x="0px" y="0px"
	 width="163.486px" height="163.486px" viewBox="0 0 163.486 163.486" enable-background="new 0 0 163.486 163.486"
	 xml:space="preserve">
<path fill="#D6E9ED" d="M82.13,159.294c-42.896,0-77.672-34.775-77.672-77.673S39.233,3.947,82.13,3.947
	c42.898,0,77.674,34.775,77.674,77.673S125.028,159.294,82.13,159.294"/>
<rect x="17.967" y="91.326" transform="matrix(0.7071 -0.7071 0.7071 0.7071 -39.8338 94.5166)" fill="#BCE5EE" width="152.414" height="8.032"/>
<rect x="34.325" y="101.193" transform="matrix(0.7071 -0.7071 0.7071 0.7071 -43.2366 106.0328)" fill="#BCE5EE" width="144.1" height="8.03"/>
<rect x="58.342" y="112.817" transform="matrix(0.7071 -0.7071 0.7071 0.7071 -48.0592 117.6388)" fill="#BCE5EE" width="119.264" height="8.03"/>
<rect x="89.788" y="123.337" transform="matrix(0.7034 -0.7108 0.7108 0.7034 -51.9009 130.3332)" fill="#BCE5EE" width="80.845" height="8.031"/>
<rect x="-2.962" y="67.544" transform="matrix(0.7071 -0.7071 0.7071 0.7071 -29.1472 72.7516)" fill="#BCE5EE" width="152.415" height="8.032"/>
<rect x="-11.934" y="57.463" transform="matrix(0.7071 -0.7071 0.7071 0.7071 -25.5314 61.3176)" fill="#BCE5EE" width="146.371" height="8.031"/>
<rect x="-14.445" y="45.902" transform="matrix(0.7071 -0.7071 0.7071 0.7071 -20.7726 49.6852)" fill="#BCE5EE" width="128.067" height="8.03"/>
<rect x="-9.218" y="34.163" transform="matrix(0.7071 -0.7071 0.7071 0.7071 -15.5723 38.7621)" fill="#BCE5EE" width="96.443" height="8.031"/>
<path fill="#F26539" d="M82.13-0.245c-45.212,0-81.865,36.652-81.865,81.865c0,45.212,36.652,81.865,81.865,81.865
	c45.214,0,81.865-36.652,81.865-81.865C163.995,36.408,127.344-0.245,82.13-0.245 M82.13,156.312
	c-41.25,0-74.69-33.439-74.69-74.691C7.439,40.37,40.88,6.93,82.13,6.93c41.251,0,74.691,33.44,74.691,74.691
	C156.821,122.872,123.381,156.312,82.13,156.312"/>
<path fill="#FFFFFF" d="M54.636,66.353c-13.488,23.841,3.516,60.341,12.713,65.808c12.228,0.195,46.158-19.221,48.248-46.337
	c-9.885-0.044-21.119-1.86-32.606-5.621C72.102,76.637,62.427,71.798,54.636,66.353"/>
<path fill="none" stroke="#92D5EA" stroke-width="5" stroke-miterlimit="10" d="M54.636,66.353
	c-13.488,23.841,3.516,60.341,12.713,65.808c12.228,0.195,46.158-19.221,48.248-46.337c-9.885-0.044-21.119-1.86-32.606-5.621
	C72.102,76.637,62.427,71.798,54.636,66.353z"/>
<path fill="#FFFFFF" d="M95.09,44.13c-23.727-7.77-39.472,4.379-46.959,17.614c9.644,6.741,21.624,12.733,35.103,17.146
	c14.223,4.657,28.131,6.907,40.371,6.96C124.759,70.86,118.749,51.878,95.09,44.13"/>
<path fill="none" stroke="#92D5EA" stroke-width="5" stroke-miterlimit="10" d="M95.09,44.13
	c-23.727-7.77-39.472,4.379-46.959,17.614c9.644,6.741,21.624,12.733,35.103,17.146c14.223,4.657,28.131,6.907,40.371,6.96
	C124.759,70.86,118.749,51.878,95.09,44.13z"/>
<path fill="none" stroke="#92D5EA" stroke-width="5" stroke-miterlimit="10" d="M71.555,116.792
	c-1.733-3.913-14.439-14.888-9.745-34.806"/>
<path fill="none" stroke="#92D5EA" stroke-width="5" stroke-miterlimit="10" d="M92.954,54.442
	c1.312-2.327,8.761-16.568,2.572-27.948"/>
<rect x="5.818" y="79.13" transform="matrix(0.7071 -0.7071 0.7071 0.7071 -33.9924 83.7331)" fill="#F26539" width="156.522" height="7.539"/>
</svg>
