<?xml version="1.0" encoding="utf-8"?>
<!-- Generator: Adobe Illustrator 15.1.0, SVG Export Plug-In . SVG Version: 6.00 Build 0)  -->
<!DOCTYPE svg PUBLIC "-//W3C//DTD SVG 1.1//EN" "http://www.w3.org/Graphics/SVG/1.1/DTD/svg11.dtd">
<svg version="1.1" id="Layer_1" xmlns="http://www.w3.org/2000/svg" xmlns:xlink="http://www.w3.org/1999/xlink" x="0px" y="0px"
	 width="163.486px" height="163.486px" viewBox="0 0 163.486 163.486" enable-background="new 0 0 163.486 163.486"
	 xml:space="preserve">
<path fill="#D6E9ED" d="M82.13,159.293c-42.897,0-77.673-34.775-77.673-77.673S39.233,3.947,82.13,3.947
	c42.898,0,77.673,34.775,77.673,77.673S125.028,159.293,82.13,159.293"/>
<rect x="17.967" y="91.325" transform="matrix(0.7071 -0.7071 0.7071 0.7071 -39.8333 94.516)" fill="#BCE5EE" width="152.414" height="8.032"/>
<rect x="34.325" y="101.192" transform="matrix(0.7071 -0.7071 0.7071 0.7071 -43.2361 106.0322)" fill="#BCE5EE" width="144.1" height="8.03"/>
<rect x="58.342" y="112.817" transform="matrix(0.7071 -0.7071 0.7071 0.7071 -48.0587 117.6381)" fill="#BCE5EE" width="119.264" height="8.03"/>
<rect x="89.788" y="123.336" transform="matrix(0.7034 -0.7108 0.7108 0.7034 -51.9002 130.3329)" fill="#BCE5EE" width="80.845" height="8.031"/>
<rect x="-2.962" y="67.543" transform="matrix(0.7071 -0.7071 0.7071 0.7071 -29.1469 72.751)" fill="#BCE5EE" width="152.414" height="8.032"/>
<rect x="-11.934" y="57.462" transform="matrix(0.7071 -0.7071 0.7071 0.7071 -25.531 61.3171)" fill="#BCE5EE" width="146.371" height="8.031"/>
<rect x="-14.444" y="45.902" transform="matrix(0.7071 -0.7071 0.7071 0.7071 -20.7722 49.6847)" fill="#BCE5EE" width="128.066" height="8.03"/>
<rect x="-9.218" y="34.163" transform="matrix(0.7071 -0.7071 0.7071 0.7071 -15.5721 38.7619)" fill="#BCE5EE" width="96.443" height="8.031"/>
<path fill="#F26539" d="M82.13-0.245c-45.213,0-81.865,36.652-81.865,81.865c0,45.212,36.652,81.864,81.865,81.864
	c45.212,0,81.865-36.652,81.865-81.864C163.995,36.408,127.343-0.245,82.13-0.245 M82.13,156.311
	c-41.25,0-74.691-33.439-74.691-74.69c0-41.25,33.441-74.69,74.691-74.69c41.251,0,74.691,33.44,74.691,74.69
	C156.821,122.871,123.382,156.311,82.13,156.311"/>
<path fill="#FFFFFF" d="M88.782,72.052c-0.029-0.028-0.049-0.054-0.08-0.08c-3.652-3.151-5.818-10.003-5.703-13.213
	c0.007-0.181-0.01-0.326-0.038-0.453c-0.225-4.273,1.563-8.522-1.138-14.425c-6.112-13.358-18.258-20.898-27.128-16.839
	c-8.87,4.058-11.106,18.177-4.994,31.535c3.332,7.284,7.123,7.385,10.234,10.356c0.015,0.019,0.039,0.037,0.057,0.055
	c0.029,0.028,0.059,0.056,0.088,0.084c0.042,0.039,0.075,0.076,0.124,0.116c0.032,0.025,0.066,0.059,0.098,0.086
	c0.17,0.158,0.342,0.316,0.515,0.469c2.462,2.417,5.659,7.954,5.655,12.398c0,0.008,0.002,0.014,0.002,0.02
	c-0.443,5.825-1.508,13.573,1.493,20.133c6.749,14.752,20.054,23.129,29.717,18.708c9.661-4.421,12.022-19.964,5.274-34.717
	C99.974,79.763,93.448,75.527,88.782,72.052"/>
<path fill="none" stroke="#92D5EA" stroke-width="5" stroke-miterlimit="10" d="M88.782,72.052c-0.029-0.028-0.049-0.054-0.08-0.08
	c-3.652-3.151-5.818-10.003-5.703-13.213c0.007-0.181-0.01-0.326-0.038-0.453c-0.225-4.273,1.563-8.522-1.138-14.425
	c-6.112-13.358-18.258-20.898-27.128-16.839c-8.87,4.058-11.106,18.177-4.994,31.535c3.332,7.284,7.123,7.385,10.234,10.356
	c0.015,0.019,0.039,0.037,0.057,0.055c0.029,0.028,0.059,0.056,0.088,0.084c0.042,0.039,0.075,0.076,0.124,0.116
	c0.032,0.025,0.066,0.059,0.098,0.086c0.17,0.158,0.342,0.316,0.515,0.469c2.462,2.417,5.659,7.954,5.655,12.398
	c0,0.008,0.002,0.014,0.002,0.02c-0.443,5.825-1.508,13.573,1.493,20.133c6.749,14.752,20.054,23.129,29.717,18.708
	c9.661-4.421,12.022-19.964,5.274-34.717C99.974,79.763,93.448,75.527,88.782,72.052z"/>
<path fill="none" stroke="#92D5EA" stroke-width="5" stroke-miterlimit="10" d="M64.135,33.781
	c5.052,3.082,11.857,8.929,11.869,17.166"/>
<path fill="none" stroke="#92D5EA" stroke-width="5" stroke-miterlimit="10" d="M83.6,76.181
	c3.929,2.606,20.798,14.583,14.585,35.197"/>
<path fill="#FFFFFF" d="M85.847,92.963c-0.039-0.006-0.07-0.017-0.111-0.02c-4.804-0.434-10.556-4.74-12.332-7.417
	c-0.1-0.151-0.199-0.259-0.296-0.347c-2.671-3.341-3.694-7.836-9.327-11.061c-12.75-7.299-27.015-6.352-31.86,2.114
	c-4.846,8.464,1.56,21.245,14.311,28.542c6.951,3.98,10.091,1.853,14.351,2.456c0.024,0.005,0.053,0.008,0.078,0.012
	c0.04,0.006,0.081,0.012,0.121,0.016c0.056,0.008,0.104,0.02,0.168,0.022c0.041,0.002,0.088,0.01,0.129,0.013
	c0.232,0.029,0.462,0.06,0.692,0.081c3.409,0.532,9.233,3.17,11.82,6.785c0.004,0.005,0.008,0.008,0.012,0.015
	c3.032,4.992,6.681,11.91,12.942,15.494c14.078,8.06,29.773,7.117,35.051-2.104c5.279-9.221-1.855-23.231-15.936-31.291
	C99.435,92.711,91.662,93.069,85.847,92.963"/>
<path fill="none" stroke="#92D5EA" stroke-width="5" stroke-miterlimit="10" d="M85.847,92.963c-0.039-0.006-0.07-0.017-0.111-0.02
	c-4.804-0.434-10.556-4.74-12.332-7.417c-0.1-0.151-0.199-0.259-0.296-0.347c-2.671-3.341-3.694-7.836-9.327-11.061
	c-12.75-7.299-27.015-6.352-31.86,2.114c-4.846,8.464,1.56,21.245,14.311,28.542c6.951,3.98,10.091,1.853,14.351,2.456
	c0.024,0.005,0.053,0.008,0.078,0.012c0.04,0.006,0.081,0.012,0.121,0.016c0.056,0.008,0.104,0.02,0.168,0.022
	c0.041,0.002,0.088,0.01,0.129,0.013c0.232,0.029,0.462,0.06,0.692,0.081c3.409,0.532,9.233,3.17,11.82,6.785
	c0.004,0.005,0.008,0.008,0.012,0.015c3.032,4.992,6.681,11.91,12.942,15.494c14.078,8.06,29.773,7.117,35.051-2.104
	c5.279-9.221-1.855-23.231-15.936-31.291C99.435,92.711,91.662,93.069,85.847,92.963z"/>
<path fill="none" stroke="#92D5EA" stroke-width="5" stroke-miterlimit="10" d="M38.021,77.133c2.4-0.855,18.146-3.618,25.146,6.118
	"/>
<path fill="none" stroke="#92D5EA" stroke-width="5" stroke-miterlimit="10" d="M54.47,87.146c2.278,1.306,6.471,7.046,12.072,8.661
	"/>
<path fill="none" stroke="#92D5EA" stroke-width="5" stroke-miterlimit="10" d="M84.039,99.336
	c4.711-0.168,25.399-0.26,32.358,20.114"/>
<rect x="5.818" y="79.129" transform="matrix(0.7071 -0.7071 0.7071 0.7071 -33.9921 83.7324)" fill="#F26539" width="156.521" height="7.539"/>
</svg>
