<?xml version="1.0" encoding="utf-8"?>
<!-- Generator: Adobe Illustrator 15.1.0, SVG Export Plug-In . SVG Version: 6.00 Build 0)  -->
<!DOCTYPE svg PUBLIC "-//W3C//DTD SVG 1.1//EN" "http://www.w3.org/Graphics/SVG/1.1/DTD/svg11.dtd">
<svg version="1.1" id="Layer_1" xmlns="http://www.w3.org/2000/svg" xmlns:xlink="http://www.w3.org/1999/xlink" x="0px" y="0px"
	 width="50px" height="25px" viewBox="0 0 50 25" enable-background="new 0 0 50 25" xml:space="preserve">
<path fill-rule="evenodd" clip-rule="evenodd" fill="#92D5EC" d="M32.864,2.536c0.236,0,0.428,0.192,0.428,0.429
	c0,0.236-0.191,0.428-0.428,0.428c-0.237,0-0.43-0.192-0.43-0.428C32.435,2.728,32.627,2.536,32.864,2.536 M29.893,3.588
	c-0.356,0.271-0.62,0.611-0.771,0.995c-0.149,0.381-0.188,0.801-0.103,1.235c0.132,0.653,0.144,0.952,0.175,1.72l0.012,0.265
	c0.029,0.694,0.408,1.035,0.768,1.36c0.209,0.188,0.409,0.368,0.447,0.595c0.103,0.621,0.416,0.731,0.781,0.861
	c0.165,0.059,0.351,0.125,0.487,0.319c0.375,0.537,0.554,0.563,0.996,0.628c0.172,0.025,0.4,0.058,0.732,0.163
	c0.671,0.209,1.057,0.068,1.416-0.063c0.2-0.073,0.389-0.141,0.62-0.082c0.744,0.191,1.124-0.043,1.856-0.497
	c0.749-0.462,1.176-0.625,1.654-1.524c0.086-0.163,0.164-0.309,0.28-0.408c0.319-0.273,0.364-0.467,0.443-0.803
	c0.054-0.23,0.13-0.551,0.385-1.071c0.384-0.78,0.228-1.205,0.029-1.749c-0.126-0.344-0.274-0.75-0.25-1.384
	c0.048-1.223-0.615-1.618-1.217-1.976c-0.241-0.144-0.47-0.28-0.567-0.455c-0.294-0.526-0.731-0.576-1.21-0.629
	c-0.308-0.035-0.641-0.072-0.886-0.318c-0.575-0.575-1.255-0.302-1.853-0.062c-0.834,0.336-0.79-0.043-1.556,0.098
	c-0.322,0.06-0.604,0.208-0.783,0.447c-0.05,0.067-0.085,0.117-0.116,0.163c-0.116,0.168-0.17,0.246-0.684,0.472
	c-0.545,0.241-0.679,0.689-0.809,1.127C30.102,3.25,30.033,3.481,29.893,3.588 M35.1,9.279c0.237,0,0.43,0.192,0.43,0.429
	c0,0.237-0.192,0.429-0.43,0.429c-0.236,0-0.428-0.192-0.428-0.429C34.672,9.471,34.863,9.279,35.1,9.279 M37.61,3.909
	c0.284,0,0.515,0.23,0.515,0.515c0,0.285-0.23,0.515-0.515,0.515s-0.516-0.23-0.516-0.515C37.095,4.139,37.326,3.909,37.61,3.909
	 M31.143,6.73c0.284,0,0.515,0.23,0.515,0.515s-0.23,0.515-0.515,0.515c-0.285,0-0.516-0.23-0.516-0.515S30.857,6.73,31.143,6.73
	 M35.075,7.257c0.284,0,0.516,0.23,0.516,0.515c0,0.284-0.231,0.515-0.516,0.515s-0.515-0.23-0.515-0.515
	C34.561,7.487,34.791,7.257,35.075,7.257 M33.432,6.205c0.236,0,0.428,0.192,0.428,0.429c0,0.236-0.191,0.429-0.428,0.429
	c-0.237,0-0.43-0.193-0.43-0.429C33.002,6.397,33.194,6.205,33.432,6.205 M34.154,3.612c0.283,0,0.515,0.231,0.515,0.515
	s-0.231,0.515-0.515,0.515c-0.284,0-0.516-0.23-0.516-0.515S33.87,3.612,34.154,3.612 M38.058,6.583
	c0.236,0,0.429,0.192,0.429,0.429c0,0.236-0.192,0.429-0.429,0.429c-0.237,0-0.43-0.193-0.43-0.429
	C37.628,6.775,37.82,6.583,38.058,6.583 M35.907,5.243c0.237,0,0.43,0.192,0.43,0.429c0,0.237-0.192,0.429-0.43,0.429
	c-0.236,0-0.429-0.192-0.429-0.429C35.479,5.435,35.671,5.243,35.907,5.243 M36.835,8.462c0.237,0,0.43,0.192,0.43,0.43
	c0,0.236-0.192,0.429-0.43,0.429c-0.236,0-0.429-0.192-0.429-0.429C36.406,8.655,36.599,8.462,36.835,8.462 M32.804,8.745
	c0.237,0,0.43,0.192,0.43,0.429c0,0.237-0.192,0.429-0.43,0.429c-0.236,0-0.429-0.192-0.429-0.429
	C32.375,8.937,32.567,8.745,32.804,8.745 M31.761,4.494c0.236,0,0.429,0.192,0.429,0.429s-0.192,0.429-0.429,0.429
	c-0.237,0-0.429-0.192-0.429-0.429S31.523,4.494,31.761,4.494 M35.989,2.517c0.236,0,0.429,0.192,0.429,0.429
	c0,0.236-0.192,0.429-0.429,0.429c-0.237,0-0.43-0.192-0.43-0.429C35.56,2.709,35.752,2.517,35.989,2.517"/>
<rect x="28.974" y="0.429" fill="none" width="11.334" height="11.407"/>
<polygon fill="#B3B3B3" points="20.021,3.749 15.773,15.585 2.564,15.585 3.156,17.517 17.049,17.517 21.296,5.684 22.995,5.684 
	23.841,3.749 "/>
<path fill="#B3B3B3" d="M4.294,7.568H14.82l-1.793,4.901H5.767L4.294,7.568z M1.692,5.632l2.635,8.772h10.054l3.207-8.772H1.692z"/>
<path fill="#B3B3B3" d="M5.566,18.058c-0.941,0-1.704,0.762-1.704,1.703c0,0.939,0.763,1.699,1.704,1.699
	c0.939,0,1.703-0.76,1.703-1.699C7.269,18.819,6.506,18.058,5.566,18.058"/>
<path fill="#B3B3B3" d="M13.891,18.058c-0.94,0-1.701,0.762-1.701,1.703c0,0.939,0.761,1.699,1.701,1.699
	c0.941,0,1.705-0.76,1.705-1.699C15.596,18.819,14.832,18.058,13.891,18.058"/>
<polygon fill="#B3B3B3" points="45.021,3.749 40.773,15.585 27.564,15.585 28.156,17.517 42.049,17.517 46.297,5.684 47.996,5.684 
	48.842,3.749 "/>
<path fill="#B3B3B3" d="M29.295,7.568H39.82l-1.793,4.901h-7.26L29.295,7.568z M26.693,5.632l2.635,8.772h10.053l3.207-8.772H26.693
	z"/>
<path fill="#B3B3B3" d="M30.566,18.058c-0.941,0-1.703,0.762-1.703,1.703c0,0.939,0.762,1.699,1.703,1.699
	c0.939,0,1.703-0.76,1.703-1.699C32.27,18.819,31.506,18.058,30.566,18.058"/>
<path fill="#B3B3B3" d="M38.891,18.058c-0.939,0-1.701,0.762-1.701,1.703c0,0.939,0.762,1.699,1.701,1.699
	c0.941,0,1.705-0.76,1.705-1.699C40.596,18.819,39.832,18.058,38.891,18.058"/>
</svg>
