<?xml version="1.0" encoding="utf-8"?>
<!-- Generator: Adobe Illustrator 15.1.0, SVG Export Plug-In . SVG Version: 6.00 Build 0)  -->
<!DOCTYPE svg PUBLIC "-//W3C//DTD SVG 1.1//EN" "http://www.w3.org/Graphics/SVG/1.1/DTD/svg11.dtd">
<svg version="1.1" id="Layer_1" xmlns="http://www.w3.org/2000/svg" xmlns:xlink="http://www.w3.org/1999/xlink" x="0px" y="0px"
	 width="163.486px" height="163.486px" viewBox="0 0 163.486 163.486" enable-background="new 0 0 163.486 163.486"
	 xml:space="preserve">
<g>
	<defs>
		<rect id="SVGID_1_" width="163.486" height="163.486"/>
	</defs>
	<clipPath id="SVGID_2_">
		<use xlink:href="#SVGID_1_"  overflow="visible"/>
	</clipPath>
	<path clip-path="url(#SVGID_2_)" fill="#F8B4B6" d="M81.743,163.486C36.598,163.486,0,126.889,0,81.743C0,36.597,36.598,0,81.743,0
		c45.146,0,81.743,36.597,81.743,81.743C163.486,126.889,126.889,163.486,81.743,163.486"/>
	<path clip-path="url(#SVGID_2_)" fill="#FFFFFF" d="M138.78,74.319c0-3.046-27.177-5.515-57-5.515c-29.823,0-57,2.469-57,5.515
		c0,2.756,9.146,49.604,9.146,51.756c0,2.411,21.425,10.366,47.854,10.366s47.854-7.955,47.854-10.366
		C129.635,123.923,138.78,77.075,138.78,74.319"/>
	<path clip-path="url(#SVGID_2_)" fill="none" stroke="#F5908C" stroke-width="5" stroke-miterlimit="10" d="M138.78,74.319
		c0-3.046-27.177-5.515-57-5.515c-29.823,0-57,2.469-57,5.515c0,2.756,9.146,49.604,9.146,51.756
		c0,2.411,21.425,10.366,47.854,10.366s47.854-7.955,47.854-10.366C129.635,123.923,138.78,77.075,138.78,74.319z"/>
	<line clip-path="url(#SVGID_2_)" fill="#FFFFFF" x1="81.78" y1="81.476" x2="81.78" y2="136.442"/>
	
		<line clip-path="url(#SVGID_2_)" fill="none" stroke="#F5908C" stroke-width="5" stroke-miterlimit="10" x1="81.78" y1="81.476" x2="81.78" y2="136.442"/>
	<line clip-path="url(#SVGID_2_)" fill="#FFFFFF" x1="63.704" y1="82.77" x2="65.941" y2="134.618"/>
	
		<line clip-path="url(#SVGID_2_)" fill="none" stroke="#F5908C" stroke-width="5" stroke-miterlimit="10" x1="63.704" y1="82.77" x2="65.941" y2="134.618"/>
	<line clip-path="url(#SVGID_2_)" fill="#FFFFFF" x1="43.918" y1="80.829" x2="49.628" y2="131.993"/>
	
		<line clip-path="url(#SVGID_2_)" fill="none" stroke="#F5908C" stroke-width="5" stroke-miterlimit="10" x1="43.918" y1="80.829" x2="49.628" y2="131.993"/>
	<line clip-path="url(#SVGID_2_)" fill="#FFFFFF" x1="100.094" y1="81.476" x2="97.856" y2="134.618"/>
	
		<line clip-path="url(#SVGID_2_)" fill="none" stroke="#F5908C" stroke-width="5" stroke-miterlimit="10" x1="100.094" y1="81.476" x2="97.856" y2="134.618"/>
	<line clip-path="url(#SVGID_2_)" fill="#FFFFFF" x1="118.406" y1="79.534" x2="113.934" y2="131.993"/>
	
		<line clip-path="url(#SVGID_2_)" fill="none" stroke="#F5908C" stroke-width="5" stroke-miterlimit="10" x1="118.406" y1="79.534" x2="113.934" y2="131.993"/>
	<path clip-path="url(#SVGID_2_)" fill="#FFFFFF" d="M141.233,72.434c0,7.995-26.618,13.304-59.453,13.304
		s-59.453-5.309-59.453-13.304S48.945,50.657,81.78,50.657S141.233,64.439,141.233,72.434"/>
	<path clip-path="url(#SVGID_2_)" fill="none" stroke="#F5908C" stroke-width="5" stroke-miterlimit="10" d="M141.233,72.434
		c0,7.995-26.618,13.304-59.453,13.304s-59.453-5.309-59.453-13.304S48.945,50.657,81.78,50.657S141.233,64.439,141.233,72.434z"/>
	<path clip-path="url(#SVGID_2_)" fill="#FFFFFF" d="M98.459,43.117c-0.014-0.003-0.024-0.008-0.039-0.011
		c-0.015-0.003-0.031-0.006-0.047-0.009c-4.521-1.104-11.202-2.949-16.624-3.069c0.32-1.835,2.244-6.758,5.679-11.762
		c-13.428,0-38.57,11.497-40.976,25.23c-0.05,0.201-0.085,0.399-0.085,0.59c-0.054,0.518,0.072,0.877,0.333,1.118
		c2.343,3.861,17.15,5.019,35.079,5.019c19.557,0,35.411-1.376,35.411-6.137C117.19,50.792,109.605,45.852,98.459,43.117"/>
	<path clip-path="url(#SVGID_2_)" fill="none" stroke="#F5908C" stroke-width="5" stroke-miterlimit="10" d="M98.459,43.117
		c-0.014-0.003-0.024-0.008-0.039-0.011c-0.015-0.003-0.031-0.006-0.047-0.009c-4.521-1.104-11.202-2.949-16.624-3.069
		c0.32-1.835,2.244-6.758,5.679-11.762c-13.428,0-38.57,11.497-40.976,25.23c-0.05,0.201-0.085,0.399-0.085,0.59
		c-0.054,0.518,0.072,0.877,0.333,1.118c2.343,3.861,17.15,5.019,35.079,5.019c19.557,0,35.411-1.376,35.411-6.137
		C117.19,50.792,109.605,45.852,98.459,43.117z"/>
</g>
</svg>
