<?xml version="1.0" encoding="utf-8"?>
<!-- Generator: Adobe Illustrator 15.1.0, SVG Export Plug-In . SVG Version: 6.00 Build 0)  -->
<!DOCTYPE svg PUBLIC "-//W3C//DTD SVG 1.1//EN" "http://www.w3.org/Graphics/SVG/1.1/DTD/svg11.dtd">
<svg version="1.1" id="Layer_1" xmlns="http://www.w3.org/2000/svg" xmlns:xlink="http://www.w3.org/1999/xlink" x="0px" y="0px"
	 width="138.947px" height="138.947px" viewBox="0 0 138.947 138.947" enable-background="new 0 0 138.947 138.947"
	 xml:space="preserve">
<path fill="#FFFFFF" d="M89.268,64.673c0,17.309-8.861,22.713-19.794,22.713S49.68,81.982,49.68,64.673
	c0-17.31,8.862-39.968,19.794-39.968S89.268,47.363,89.268,64.673"/>
<path fill="#92D5EA" d="M69.474,89.737c-10.103,0-22.145-4.348-22.145-25.064c0-16.847,8.833-42.318,22.145-42.318
	c13.312,0,22.145,25.47,22.145,42.318C91.619,85.39,79.577,89.737,69.474,89.737z M69.474,27.056
	c-8.985,0-17.444,21.192-17.444,37.617c0,13.704,5.706,20.363,17.444,20.363c11.737,0,17.443-6.659,17.443-20.363
	C86.918,48.248,78.459,27.056,69.474,27.056z"/>
<path fill="#92D5EA" d="M76.089,47.357c-1.564-4.436-3.504-8.302-5.607-11.182l3.795-2.774c2.373,3.244,4.532,7.53,6.245,12.392
	L76.089,47.357z"/>
<path fill="#FFFFFF" d="M92.341,62.91H46.61c0,19.913,7.336,28.232,17.251,30.319l1.425,12.206c-5.726,0.545-9.883,2.18-9.883,4.116
	c0,2.379,6.301,4.309,14.074,4.309c7.77,0,14.072-1.93,14.072-4.309c0-1.935-4.159-3.571-9.885-4.116l1.427-12.206
	C85.004,91.143,92.341,82.823,92.341,62.91"/>
<path fill="#92D5EA" d="M69.475,116.211c-7.576,0-16.424-1.743-16.424-6.659c0-3.918,5.608-5.513,9.629-6.153l-0.966-8.275
	C50.129,91.865,44.259,81.04,44.259,62.91V60.56h50.432v2.351c0,18.129-5.87,28.954-17.458,32.213l-0.967,8.275
	c4.022,0.641,9.63,2.235,9.63,6.153C85.897,114.468,77.05,116.211,69.475,116.211z M58.215,109.555
	c1.468,0.841,5.382,1.955,11.261,1.955c5.878,0,9.792-1.114,11.26-1.955c-1.033-0.589-3.372-1.404-7.295-1.778l-2.392-0.229
	l1.902-16.271l1.652-0.348c9.714-2.044,14.87-10.674,15.35-25.668H48.996c0.479,14.994,5.637,23.624,15.349,25.668l1.654,0.348
	l1.899,16.271l-2.39,0.229C61.586,108.15,59.245,108.966,58.215,109.555z"/>
<path fill="#92D5EA" d="M77.521,86.666l-3.032-3.593c3.78-3.193,5.947-6.562,6.572-15.205l4.689,0.338
	C85.012,78.413,82.055,82.837,77.521,86.666z"/>
</svg>
