<?xml version="1.0" encoding="utf-8"?>
<!-- Generator: Adobe Illustrator 16.0.0, SVG Export Plug-In . SVG Version: 6.00 Build 0)  -->
<!DOCTYPE svg PUBLIC "-//W3C//DTD SVG 1.1//EN" "http://www.w3.org/Graphics/SVG/1.1/DTD/svg11.dtd">
<svg version="1.1" id="Layer_1" xmlns="http://www.w3.org/2000/svg" xmlns:xlink="http://www.w3.org/1999/xlink" x="0px" y="0px"
	 width="183.486px" height="183.486px" viewBox="0 0 183.486 183.486" enable-background="new 0 0 183.486 183.486"
	 xml:space="preserve">
<path fill="#F0DBCE" d="M91.743,183.486C41.075,183.486,0,142.412,0,91.743S41.075,0,91.743,0s91.743,41.074,91.743,91.743
	S142.411,183.486,91.743,183.486"/>
<path fill="#FFFFFF" d="M91.743,154.593c-31.674,0-57.349-25.676-57.349-57.35s114.699-31.674,114.699,0
	S123.416,154.593,91.743,154.593"/>
<path fill="none" stroke="#E8B3A3" stroke-width="5" stroke-miterlimit="10" d="M91.743,154.593
	c-31.674,0-57.349-25.676-57.349-57.35s114.699-31.674,114.699,0S123.416,154.593,91.743,154.593z"/>
<path fill="#FFFFFF" d="M34.394,97.244c0-31.673,114.699-31.673,114.699,0S34.394,128.917,34.394,97.244"/>
<path fill="none" stroke="#E8B3A3" stroke-width="5" stroke-miterlimit="10" d="M34.394,97.244c0-31.673,114.699-31.673,114.699,0
	S34.394,128.917,34.394,97.244z"/>
<ellipse transform="matrix(-0.8569 0.5154 -0.5154 -0.8569 203.2672 164.0899)" fill="none" stroke="#E8B3A3" stroke-width="5" stroke-miterlimit="10" cx="78.86" cy="110.256" rx="11.855" ry="7.505"/>
<line fill="none" stroke="#E8B3A3" stroke-width="5" stroke-miterlimit="10" x1="89.018" y1="104.146" x2="155.096" y2="64.398"/>
</svg>
