<?xml version="1.0" encoding="utf-8"?>
<!-- Generator: Adobe Illustrator 15.1.0, SVG Export Plug-In . SVG Version: 6.00 Build 0)  -->
<!DOCTYPE svg PUBLIC "-//W3C//DTD SVG 1.1//EN" "http://www.w3.org/Graphics/SVG/1.1/DTD/svg11.dtd">
<svg version="1.1" id="Layer_1" xmlns="http://www.w3.org/2000/svg" xmlns:xlink="http://www.w3.org/1999/xlink" x="0px" y="0px"
	 width="163.486px" height="163.486px" viewBox="0 0 163.486 163.486" enable-background="new 0 0 163.486 163.486"
	 xml:space="preserve">
<g>
	<defs>
		<rect id="SVGID_1_" width="163.486" height="163.486"/>
	</defs>
	<clipPath id="SVGID_2_">
		<use xlink:href="#SVGID_1_"  overflow="visible"/>
	</clipPath>
	<path clip-path="url(#SVGID_2_)" fill="#C2DD90" d="M81.743,163.486C36.598,163.486,0,126.889,0,81.743C0,36.597,36.598,0,81.743,0
		c45.146,0,81.743,36.597,81.743,81.743C163.486,126.889,126.889,163.486,81.743,163.486"/>
	<rect x="67.598" y="51.409" clip-path="url(#SVGID_2_)" fill="#FFFFFF" width="71.012" height="60.667"/>
	
		<rect x="67.598" y="51.409" clip-path="url(#SVGID_2_)" fill="none" stroke="#83C55F" stroke-width="5" stroke-miterlimit="10" width="71.012" height="60.667"/>
	<polygon clip-path="url(#SVGID_2_)" fill="#FFFFFF" points="60.943,112.076 24.129,112.076 24.129,83.743 38.61,65.243 
		60.943,65.243 	"/>
	<polygon clip-path="url(#SVGID_2_)" fill="none" stroke="#83C55F" stroke-width="5" stroke-miterlimit="10" points="
		60.943,112.076 24.129,112.076 24.129,83.743 38.61,65.243 60.943,65.243 	"/>
	<path clip-path="url(#SVGID_2_)" fill="#FFFFFF" d="M67.61,116.993c0,5.592-4.533,10.125-10.125,10.125
		c-5.592,0-10.125-4.533-10.125-10.125s4.533-10.125,10.125-10.125C63.077,106.868,67.61,111.401,67.61,116.993"/>
	
		<circle clip-path="url(#SVGID_2_)" fill="none" stroke="#83C55F" stroke-width="5" stroke-miterlimit="10" cx="57.485" cy="116.993" r="10.125"/>
	<path clip-path="url(#SVGID_2_)" fill="#FFFFFF" d="M122.484,116.993c0,5.592-4.532,10.125-10.125,10.125
		c-5.592,0-10.125-4.533-10.125-10.125s4.533-10.125,10.125-10.125C117.952,106.868,122.484,111.401,122.484,116.993"/>
	
		<circle clip-path="url(#SVGID_2_)" fill="none" stroke="#83C55F" stroke-width="5" stroke-miterlimit="10" cx="112.359" cy="116.993" r="10.125"/>
	<polyline clip-path="url(#SVGID_2_)" fill="#FFFFFF" points="24.129,87.076 50.359,87.076 50.359,66.159 	"/>
	<polyline clip-path="url(#SVGID_2_)" fill="none" stroke="#83C55F" stroke-width="5" stroke-miterlimit="10" points="
		24.129,87.076 50.359,87.076 50.359,66.159 	"/>
</g>
</svg>
