<?xml version="1.0" encoding="utf-8"?>
<!-- Generator: Adobe Illustrator 15.1.0, SVG Export Plug-In . SVG Version: 6.00 Build 0)  -->
<!DOCTYPE svg PUBLIC "-//W3C//DTD SVG 1.1//EN" "http://www.w3.org/Graphics/SVG/1.1/DTD/svg11.dtd">
<svg version="1.1" id="Layer_1" xmlns="http://www.w3.org/2000/svg" xmlns:xlink="http://www.w3.org/1999/xlink" x="0px" y="0px"
	 width="163.486px" height="163.486px" viewBox="0 0 163.486 163.486" enable-background="new 0 0 163.486 163.486"
	 xml:space="preserve">
<g>
	<defs>
		<rect id="SVGID_1_" width="163.486" height="163.486"/>
	</defs>
	<clipPath id="SVGID_2_">
		<use xlink:href="#SVGID_1_"  overflow="visible"/>
	</clipPath>
	<path clip-path="url(#SVGID_2_)" fill="#B998C7" d="M81.743,163.486C36.598,163.486,0,126.889,0,81.743C0,36.597,36.598,0,81.743,0
		c45.146,0,81.743,36.597,81.743,81.743C163.486,126.889,126.889,163.486,81.743,163.486"/>
	<path clip-path="url(#SVGID_2_)" fill="#FFFFFF" d="M48.129,126.208c2.225-2.343,2.13-6.045-0.211-8.27
		c-0.231-0.219-0.483-0.396-0.737-0.571c0.367-1.894-0.198-3.928-1.7-5.354c-2.342-2.226-6.044-2.131-8.269,0.211
		c-1.06,1.116-1.577,2.54-1.592,3.967c-0.859,0.296-1.668,0.771-2.337,1.476c-2.225,2.341-2.13,6.044,0.212,8.269
		c1.895,1.8,4.67,2.055,6.844,0.855C42.683,128.596,46.046,128.4,48.129,126.208"/>
	<path clip-path="url(#SVGID_2_)" fill="none" stroke="#8859A4" stroke-width="5" stroke-miterlimit="10" d="M48.129,126.208
		c2.225-2.343,2.13-6.045-0.211-8.27c-0.231-0.219-0.483-0.396-0.737-0.571c0.367-1.894-0.198-3.928-1.7-5.354
		c-2.342-2.226-6.044-2.131-8.269,0.211c-1.06,1.116-1.577,2.54-1.592,3.967c-0.859,0.296-1.668,0.771-2.337,1.476
		c-2.225,2.341-2.13,6.044,0.212,8.269c1.895,1.8,4.67,2.055,6.844,0.855C42.683,128.596,46.046,128.4,48.129,126.208z"/>
	<path clip-path="url(#SVGID_2_)" fill="#FFFFFF" d="M126.447,64.421c0-4.706-19.55-8.52-43.667-8.52
		c-24.116,0-43.666,3.814-43.666,8.52c0,4.258,4.97,58.093,4.97,61.417c0,3.727,17.325,6.746,38.696,6.746
		c21.372,0,38.697-3.02,38.697-6.746C121.478,122.514,126.447,68.68,126.447,64.421"/>
	<path clip-path="url(#SVGID_2_)" fill="none" stroke="#8859A4" stroke-width="5" stroke-miterlimit="10" d="M126.447,64.421
		c0-4.706-19.55-8.52-43.667-8.52c-24.116,0-43.666,3.814-43.666,8.52c0,4.258,4.97,58.093,4.97,61.417
		c0,3.727,17.325,6.746,38.696,6.746c21.372,0,38.697-3.02,38.697-6.746C121.478,122.514,126.447,68.68,126.447,64.421z"/>
	<path clip-path="url(#SVGID_2_)" fill="#FFFFFF" d="M55.72,127.756c0-3.229-2.619-5.849-5.849-5.849
		c-0.317,0-0.623,0.045-0.927,0.094c-1.039-1.627-2.849-2.712-4.922-2.712c-3.23,0-5.849,2.619-5.849,5.849
		c0,1.539,0.607,2.929,1.578,3.973c-0.418,0.806-0.678,1.708-0.678,2.679c0,3.23,2.619,5.849,5.849,5.849
		c2.615,0,4.803-1.727,5.552-4.094C53.417,133.24,55.72,130.781,55.72,127.756"/>
	<path clip-path="url(#SVGID_2_)" fill="none" stroke="#8859A4" stroke-width="5" stroke-miterlimit="10" d="M55.72,127.756
		c0-3.229-2.619-5.849-5.849-5.849c-0.317,0-0.623,0.045-0.927,0.094c-1.039-1.627-2.849-2.712-4.922-2.712
		c-3.23,0-5.849,2.619-5.849,5.849c0,1.539,0.607,2.929,1.578,3.973c-0.418,0.806-0.678,1.708-0.678,2.679
		c0,3.23,2.619,5.849,5.849,5.849c2.615,0,4.803-1.727,5.552-4.094C53.417,133.24,55.72,130.781,55.72,127.756z"/>
	<path clip-path="url(#SVGID_2_)" fill="#FFFFFF" d="M118.602,43.45c-0.627,0-1.238,0.061-1.84,0.15
		c-1.784-9.868-10.399-17.359-20.781-17.359c-10.308,0-18.881,7.382-20.749,17.146c-3.03-3.879-7.739-6.383-13.043-6.383
		c-7.833,0-14.38,5.447-16.099,12.756c-6.514,0.449-11.663,5.861-11.663,12.489c0,6.922,5.611,12.533,12.533,12.533
		c4.275,0,8.046-2.145,10.308-5.413c0.245,0.076,0.499,0.127,0.749,0.192c2.701,5.471,8.321,9.242,14.835,9.242
		c6.026,0,11.284-3.23,14.179-8.043c3.036,3.545,7.536,5.799,12.569,5.799c6.354,0,11.867-3.585,14.641-8.839
		c1.36,0.506,2.825,0.795,4.361,0.795c6.922,0,12.533-5.611,12.533-12.532C131.135,49.061,125.523,43.45,118.602,43.45"/>
	<path clip-path="url(#SVGID_2_)" fill="none" stroke="#8859A4" stroke-width="5" stroke-miterlimit="10" d="M118.602,43.45
		c-0.627,0-1.238,0.061-1.84,0.15c-1.784-9.868-10.399-17.359-20.781-17.359c-10.308,0-18.881,7.382-20.749,17.146
		c-3.03-3.879-7.739-6.383-13.043-6.383c-7.833,0-14.38,5.447-16.099,12.756c-6.514,0.449-11.663,5.861-11.663,12.489
		c0,6.922,5.611,12.533,12.533,12.533c4.275,0,8.046-2.145,10.308-5.413c0.245,0.076,0.499,0.127,0.749,0.192
		c2.701,5.471,8.321,9.242,14.835,9.242c6.026,0,11.284-3.23,14.179-8.043c3.036,3.545,7.536,5.799,12.569,5.799
		c6.354,0,11.867-3.585,14.641-8.839c1.36,0.506,2.825,0.795,4.361,0.795c6.922,0,12.533-5.611,12.533-12.532
		C131.135,49.061,125.523,43.45,118.602,43.45z"/>
	<path clip-path="url(#SVGID_2_)" fill="#FFFFFF" d="M90.351,60.081c-0.588-5.125,3.09-9.757,8.216-10.345
		c5.125-0.588,9.758,3.091,10.346,8.216"/>
	<path clip-path="url(#SVGID_2_)" fill="none" stroke="#8859A4" stroke-width="5" stroke-miterlimit="10" d="M90.351,60.081
		c-0.588-5.125,3.09-9.757,8.216-10.345c5.125-0.588,9.758,3.091,10.346,8.216"/>
	<line clip-path="url(#SVGID_2_)" fill="#FFFFFF" x1="82.78" y1="75.478" x2="82.78" y2="132.583"/>
	
		<line clip-path="url(#SVGID_2_)" fill="none" stroke="#8859A4" stroke-width="5" stroke-miterlimit="10" x1="82.78" y1="75.478" x2="82.78" y2="132.583"/>
	<line clip-path="url(#SVGID_2_)" fill="#FFFFFF" x1="69.78" y1="77.478" x2="70.78" y2="132.583"/>
	
		<line clip-path="url(#SVGID_2_)" fill="none" stroke="#8859A4" stroke-width="5" stroke-miterlimit="10" x1="69.78" y1="77.478" x2="70.78" y2="132.583"/>
	<line clip-path="url(#SVGID_2_)" fill="#FFFFFF" x1="53.78" y1="74.478" x2="56.78" y2="130.583"/>
	
		<line clip-path="url(#SVGID_2_)" fill="none" stroke="#8859A4" stroke-width="5" stroke-miterlimit="10" x1="53.78" y1="74.478" x2="56.78" y2="130.583"/>
	<line clip-path="url(#SVGID_2_)" fill="#FFFFFF" x1="96.78" y1="75.478" x2="95.78" y2="132.583"/>
	
		<line clip-path="url(#SVGID_2_)" fill="none" stroke="#8859A4" stroke-width="5" stroke-miterlimit="10" x1="96.78" y1="75.478" x2="95.78" y2="132.583"/>
	<line clip-path="url(#SVGID_2_)" fill="#FFFFFF" x1="110.78" y1="72.478" x2="108.78" y2="132.583"/>
	
		<line clip-path="url(#SVGID_2_)" fill="none" stroke="#8859A4" stroke-width="5" stroke-miterlimit="10" x1="110.78" y1="72.478" x2="108.78" y2="132.583"/>
</g>
</svg>
