<?xml version="1.0" encoding="utf-8"?>
<!-- Generator: Adobe Illustrator 15.1.0, SVG Export Plug-In . SVG Version: 6.00 Build 0)  -->
<!DOCTYPE svg PUBLIC "-//W3C//DTD SVG 1.1//EN" "http://www.w3.org/Graphics/SVG/1.1/DTD/svg11.dtd">
<svg version="1.1" id="Layer_1" xmlns="http://www.w3.org/2000/svg" xmlns:xlink="http://www.w3.org/1999/xlink" x="0px" y="0px"
	 width="138.947px" height="138.947px" viewBox="0 0 138.947 138.947" enable-background="new 0 0 138.947 138.947"
	 xml:space="preserve">
<g>
	<path fill="#FFFFFF" d="M78.002,57.999c-0.025-0.024-0.042-0.047-0.069-0.07c-3.215-2.772-5.12-8.802-5.02-11.627
		c0.006-0.159-0.009-0.287-0.033-0.398c-0.199-3.761,1.376-7.5-1.002-12.694C66.499,21.454,55.81,14.818,48.005,18.39
		c-7.806,3.571-9.773,15.997-4.395,27.752c2.932,6.41,6.269,6.499,9.004,9.113c0.015,0.017,0.034,0.033,0.052,0.049
		c0.024,0.024,0.051,0.049,0.078,0.074c0.037,0.034,0.066,0.067,0.109,0.102c0.028,0.022,0.056,0.052,0.086,0.076
		c0.149,0.139,0.301,0.278,0.454,0.412c2.167,2.127,4.979,7,4.976,10.912c0,0.006,0.001,0.011,0.001,0.017
		c-0.388,5.127-1.327,11.947,1.314,17.717c5.939,12.982,17.647,20.354,26.151,16.465c8.501-3.893,10.58-17.57,4.642-30.552
		C87.849,64.785,82.108,61.058,78.002,57.999"/>
	<path fill="#92D5EA" d="M80.957,104.313L80.957,104.313c-8.78,0-18.131-7.549-23.272-18.785
		c-2.607-5.699-2.072-12.057-1.641-17.168c0.044-0.522,0.087-1.033,0.125-1.526c-0.018-3.254-2.523-7.51-4.278-9.259
		c-0.142-0.127-0.284-0.257-0.424-0.387l-0.04-0.036c0.006,0.005,0.013,0.012,0.018,0.018c-0.001,0-0.001-0.001-0.001-0.002l0,0
		c-0.093-0.079-0.151-0.133-0.206-0.188l1.47-1.639l-1.569,1.544c-0.023-0.02-0.051-0.047-0.082-0.079
		c-0.668-0.627-1.411-1.096-2.267-1.635c-2.169-1.368-4.872-3.07-7.179-8.114c-2.78-6.075-3.816-12.54-2.918-18.205
		c0.949-5.994,3.932-10.419,8.399-12.463c1.69-0.774,3.523-1.167,5.447-1.167c8.093,0,16.669,6.861,21.34,17.07
		c1.899,4.152,1.592,7.591,1.341,10.355c-0.097,1.06-0.187,2.062-0.149,3.007c0.036,0.236,0.05,0.475,0.042,0.724
		c-0.085,2.372,1.703,7.683,4.256,9.884l0.093,0.079c0.399,0.296,0.817,0.6,1.24,0.912c4.099,2.996,9.198,6.723,11.777,12.356
		c6.435,14.063,3.866,29.077-5.728,33.467C84.954,103.897,83.006,104.313,80.957,104.313z M60.567,66.685l0.003,0.292l-0.006,0.084
		c-0.041,0.538-0.088,1.097-0.136,1.668c-0.386,4.598-0.868,10.319,1.258,14.968c4.368,9.549,12.293,16.216,19.271,16.216l0,0
		c1.412,0,2.745-0.28,3.962-0.837c7.388-3.382,8.981-15.778,3.557-27.635c-2.101-4.591-6.687-7.942-10.369-10.635
		c-0.49-0.356-0.964-0.703-1.417-1.042l-0.27-0.235c-3.697-3.267-5.801-9.846-5.707-13.237l-0.031-0.274
		c-0.068-1.295,0.045-2.552,0.154-3.766c0.235-2.59,0.457-5.039-0.959-8.128c-3.905-8.538-11.037-14.502-17.339-14.502
		c-1.288,0-2.506,0.258-3.616,0.768c-3.083,1.411-5.172,4.66-5.886,9.15c-0.763,4.819,0.151,10.39,2.574,15.685
		c1.761,3.851,3.589,5.003,5.524,6.222c0.985,0.621,2.003,1.263,3.001,2.215l0.251,0.234c0.185,0.171,0.321,0.298,0.459,0.419
		l0.087,0.081C57.244,56.666,60.484,61.944,60.567,66.685z"/>
	<path fill="#92D5EA" d="M64.557,39.43c-0.009-6.533-5.886-11.094-9.39-13.231l2.291-3.756c4.289,2.617,11.488,8.302,11.5,16.98
		L64.557,39.43z"/>
	<path fill="#92D5EA" d="M88.383,93.241l-4.213-1.269c4.666-15.48-6.799-25.092-11.944-28.506l2.434-3.667
		C80.623,63.756,93.9,74.936,88.383,93.241z"/>
	<path fill="#FFFFFF" d="M75.418,76.401c-0.034-0.007-0.06-0.015-0.096-0.017c-4.23-0.382-9.292-4.173-10.853-6.528
		c-0.089-0.133-0.175-0.227-0.261-0.304c-2.352-2.941-3.251-6.896-8.208-9.735c-11.22-6.423-23.775-5.59-28.037,1.86
		c-4.264,7.449,1.373,18.696,12.595,25.118c6.115,3.502,8.88,1.63,12.628,2.16c0.021,0.006,0.047,0.007,0.069,0.011
		c0.035,0.005,0.071,0.011,0.107,0.015c0.049,0.007,0.091,0.018,0.148,0.02c0.036,0.002,0.077,0.009,0.113,0.012
		c0.203,0.024,0.407,0.054,0.608,0.071c3,0.467,8.125,2.79,10.402,5.971c0.003,0.003,0.007,0.008,0.01,0.013
		c2.668,4.393,5.88,10.48,11.389,13.635c12.39,7.095,26.201,6.263,30.846-1.852c4.646-8.116-1.632-20.442-14.023-27.537
		C87.375,76.18,80.537,76.495,75.418,76.401"/>
	<path fill="#92D5EA" d="M92.866,115.725c-0.002,0-0.002,0-0.002,0c-5.801,0-12.167-1.814-17.925-5.113
		c-5.44-3.113-8.708-8.598-11.336-13.001c-0.269-0.453-0.531-0.893-0.789-1.317c-1.913-2.624-6.415-4.623-8.862-5.025
		c-0.176-0.018-0.353-0.039-0.531-0.062l-0.082-0.01c-0.1-0.009-0.188-0.019-0.276-0.033c-0.043-0.006-0.085-0.013-0.127-0.019
		l-0.07-0.011c-0.832-0.116-1.843-0.075-2.841-0.016c-0.639,0.038-1.285,0.074-1.966,0.074c-1.978,0-4.742-0.282-8.594-2.487
		c-5.797-3.318-10.407-7.971-12.977-13.097c-2.719-5.425-2.875-10.761-0.433-15.024c2.65-4.632,8.052-7.288,14.817-7.288
		c5.266,0,11.027,1.637,16.224,4.612c3.962,2.269,5.712,5.245,7.122,7.637c0.537,0.917,1.047,1.784,1.628,2.528
		c0.169,0.171,0.321,0.359,0.459,0.569c1.309,1.975,5.857,5.249,9.215,5.551l0.134,0.013c0.492,0.011,1.001,0.014,1.521,0.019
		c5.078,0.047,11.396,0.105,16.773,3.184c6.359,3.641,11.426,8.716,14.269,14.295c2.996,5.886,3.2,11.653,0.569,16.242
		C105.958,112.889,100.153,115.725,92.866,115.725z M66.338,93.657l0.084,0.094l0.129,0.225c0.25,0.41,0.535,0.889,0.829,1.38
		c2.365,3.964,5.306,8.896,9.744,11.436c5.103,2.922,10.691,4.531,15.738,4.531c5.669,0,10.081-2.03,12.105-5.565
		c1.865-3.26,1.628-7.541-0.676-12.06c-2.456-4.822-6.909-9.253-12.532-12.475c-4.383-2.509-10.062-2.561-14.627-2.602
		c-0.604-0.006-1.189-0.013-1.755-0.02l-0.366-0.037c-4.919-0.521-10.438-4.631-12.337-7.433l-0.187-0.206
		c-0.81-1.013-1.449-2.1-2.068-3.15c-1.319-2.242-2.566-4.36-5.515-6.049c-4.541-2.599-9.525-4.031-14.037-4.031
		c-5.144,0-9.153,1.85-10.998,5.074c-1.685,2.943-1.49,6.801,0.547,10.866c2.187,4.362,6.175,8.357,11.229,11.251
		c2.935,1.681,4.888,1.906,6.409,1.906c0.589,0,1.151-0.035,1.706-0.068c1.292-0.077,2.59-0.108,3.73,0.055l0.481,0.06
		c0.155,0.019,0.309,0.039,0.461,0.053l0.135,0.02C57.781,87.412,63.519,89.831,66.338,93.657z"/>
	<path fill="#92D5EA" d="M53.674,69.14c-5.312-7.388-17.985-5.173-19.603-4.597l-1.478-4.145c2.501-0.89,17.672-3.538,24.654,6.173
		L53.674,69.14z"/>
	<path fill="#92D5EA" d="M57.821,81.019c-3.841-1.109-6.857-3.96-9.057-6.043c-0.798-0.757-1.628-1.541-2.051-1.781l2.188-3.817
		c0.879,0.502,1.765,1.341,2.888,2.402c1.977,1.871,4.437,4.2,7.251,5.012L57.821,81.019z"/>
	<path fill="#92D5EA" d="M100.222,100.421c-5.226-15.295-20.146-16.433-26.316-16.213l-0.155-4.396
		C80.9,79.548,98.21,80.915,104.384,99L100.222,100.421z"/>
</g>
</svg>
