<?xml version="1.0" encoding="utf-8"?>
<!-- Generator: Adobe Illustrator 15.1.0, SVG Export Plug-In . SVG Version: 6.00 Build 0)  -->
<!DOCTYPE svg PUBLIC "-//W3C//DTD SVG 1.1//EN" "http://www.w3.org/Graphics/SVG/1.1/DTD/svg11.dtd">
<svg version="1.1" id="Layer_1" xmlns="http://www.w3.org/2000/svg" xmlns:xlink="http://www.w3.org/1999/xlink" x="0px" y="0px"
	 width="163.486px" height="163.486px" viewBox="0 0 163.486 163.486" enable-background="new 0 0 163.486 163.486"
	 xml:space="preserve">
<g>
	<defs>
		<rect id="SVGID_1_" width="163.486" height="163.486"/>
	</defs>
	<clipPath id="SVGID_2_">
		<use xlink:href="#SVGID_1_"  overflow="visible"/>
	</clipPath>
	<path clip-path="url(#SVGID_2_)" fill="#D6E9ED" d="M81.743,163.486C36.598,163.486,0,126.889,0,81.743C0,36.597,36.598,0,81.743,0
		c45.146,0,81.743,36.597,81.743,81.743C163.486,126.889,126.889,163.486,81.743,163.486"/>
	<path clip-path="url(#SVGID_2_)" fill="#FFFFFF" d="M111.416,87.258c-2.09,0.785-4.344,1.234-6.708,1.234
		c-10.558,0-19.115-8.558-19.115-19.116c0-7.949,4.854-14.761,11.758-17.644c-1.61-2.501-2.557-5.473-2.557-8.669
		c0-0.541,0.029-1.076,0.081-1.603c-6.262-2.863-13.218-4.472-20.554-4.472c-27.34,0-49.504,22.164-49.504,49.504
		s22.164,49.503,49.504,49.503c23.215,0,42.689-15.982,48.04-37.543C117.033,96.886,112.87,92.632,111.416,87.258"/>
	<path clip-path="url(#SVGID_2_)" fill="none" stroke="#92D5EA" stroke-width="5" stroke-miterlimit="10" d="M111.416,87.258
		c-2.09,0.785-4.344,1.234-6.708,1.234c-10.558,0-19.115-8.558-19.115-19.116c0-7.949,4.854-14.761,11.758-17.644
		c-1.61-2.501-2.557-5.473-2.557-8.669c0-0.541,0.029-1.076,0.081-1.603c-6.262-2.863-13.218-4.472-20.554-4.472
		c-27.34,0-49.504,22.164-49.504,49.504s22.164,49.503,49.504,49.503c23.215,0,42.689-15.982,48.04-37.543
		C117.033,96.886,112.87,92.632,111.416,87.258z"/>
	<path clip-path="url(#SVGID_2_)" fill="#FFFFFF" d="M96.789,106.993c0,4.694-3.806,8.5-8.5,8.5s-8.5-3.806-8.5-8.5
		s3.806-8.5,8.5-8.5S96.789,102.298,96.789,106.993"/>
	
		<circle clip-path="url(#SVGID_2_)" fill="none" stroke="#92D5EA" stroke-width="5" stroke-miterlimit="10" cx="88.289" cy="106.993" r="8.5"/>
	<path clip-path="url(#SVGID_2_)" fill="#FFFFFF" d="M71.289,65.893c0,4.059-3.291,7.35-7.35,7.35c-4.06,0-7.351-3.291-7.351-7.35
		c0-4.059,3.291-7.35,7.351-7.35C67.998,58.542,71.289,61.833,71.289,65.893"/>
	
		<circle clip-path="url(#SVGID_2_)" fill="none" stroke="#92D5EA" stroke-width="5" stroke-miterlimit="10" cx="63.938" cy="65.893" r="7.351"/>
	<path clip-path="url(#SVGID_2_)" fill="#FFFFFF" d="M59.61,98.493c0,5.661-4.589,10.25-10.25,10.25s-10.25-4.589-10.25-10.25
		s4.589-10.25,10.25-10.25S59.61,92.832,59.61,98.493"/>
	
		<circle clip-path="url(#SVGID_2_)" fill="none" stroke="#92D5EA" stroke-width="5" stroke-miterlimit="10" cx="49.36" cy="98.493" r="10.25"/>
	<path clip-path="url(#SVGID_2_)" fill="#FFFFFF" d="M120.609,68.118c0,2.83-2.295,5.125-5.125,5.125
		c-2.829,0-5.125-2.295-5.125-5.125s2.296-5.125,5.125-5.125C118.314,62.993,120.609,65.288,120.609,68.118"/>
	
		<circle clip-path="url(#SVGID_2_)" fill="none" stroke="#92D5EA" stroke-width="5" stroke-miterlimit="10" cx="115.484" cy="68.118" r="5.125"/>
	<path clip-path="url(#SVGID_2_)" fill="#FFFFFF" d="M128.735,44.243c0,3.176-2.574,5.75-5.75,5.75s-5.75-2.574-5.75-5.75
		c0-3.176,2.574-5.75,5.75-5.75S128.735,41.066,128.735,44.243"/>
	
		<circle clip-path="url(#SVGID_2_)" fill="none" stroke="#92D5EA" stroke-width="5" stroke-miterlimit="10" cx="122.985" cy="44.243" r="5.75"/>
</g>
</svg>
