<?xml version="1.0" encoding="utf-8"?>
<!-- Generator: Adobe Illustrator 15.1.0, SVG Export Plug-In . SVG Version: 6.00 Build 0)  -->
<!DOCTYPE svg PUBLIC "-//W3C//DTD SVG 1.1//EN" "http://www.w3.org/Graphics/SVG/1.1/DTD/svg11.dtd">
<svg version="1.1" id="Layer_1" xmlns="http://www.w3.org/2000/svg" xmlns:xlink="http://www.w3.org/1999/xlink" x="0px" y="0px"
	 width="149.551px" height="152.405px" viewBox="321.865 237.822 149.551 152.405"
	 enable-background="new 321.865 237.822 149.551 152.405" xml:space="preserve">
<path fill="#D6E9ED" d="M396.252,390.227c-42.896,0-77.673-34.774-77.673-77.674c0-42.897,34.776-77.673,77.673-77.673
	c42.898,0,77.674,34.775,77.674,77.673C473.926,355.451,439.15,390.227,396.252,390.227"/>
<rect x="332.085" y="322.262" transform="matrix(-0.7071 0.7071 -0.7071 -0.7071 927.7098 268.2852)" fill="#BCE5EE" width="152.413" height="8.031"/>
<rect x="348.443" y="332.125" transform="matrix(-0.7071 0.7071 -0.7071 -0.7071 955.5128 276.4949)" fill="#BCE5EE" width="144.099" height="8.031"/>
<rect x="372.459" y="343.747" transform="matrix(-0.7071 0.7071 -0.7071 -0.7071 983.5294 288.1309)" fill="#BCE5EE" width="119.263" height="8.032"/>
<rect x="403.915" y="354.291" transform="matrix(-0.7034 0.7108 -0.7108 -0.7034 1011.5663 294.5069)" fill="#BCE5EE" width="80.845" height="8.031"/>
<rect x="311.156" y="298.477" transform="matrix(-0.7071 0.7071 -0.7071 -0.7071 875.1643 242.4804)" fill="#BCE5EE" width="152.413" height="8.032"/>
<rect x="302.184" y="288.395" transform="matrix(-0.7071 0.7071 -0.7071 -0.7071 847.5605 233.7493)" fill="#BCE5EE" width="146.37" height="8.032"/>
<rect x="299.675" y="276.836" transform="matrix(-0.7071 0.7071 -0.7071 -0.7071 819.479 222.2641)" fill="#BCE5EE" width="128.065" height="8.03"/>
<rect x="304.902" y="265.101" transform="matrix(-0.7071 0.7071 -0.7071 -0.7071 793.1122 209.7156)" fill="#BCE5EE" width="96.441" height="8.031"/>
<rect x="319.935" y="310.062" transform="matrix(-0.7071 0.7071 -0.7071 -0.7071 901.6744 254.177)" fill="#BCE5EE" width="156.521" height="7.538"/>
</svg>
