<?xml version="1.0" encoding="utf-8"?>
<!-- Generator: Adobe Illustrator 15.1.0, SVG Export Plug-In . SVG Version: 6.00 Build 0)  -->
<!DOCTYPE svg PUBLIC "-//W3C//DTD SVG 1.1//EN" "http://www.w3.org/Graphics/SVG/1.1/DTD/svg11.dtd">
<svg version="1.1" id="Layer_1" xmlns="http://www.w3.org/2000/svg" xmlns:xlink="http://www.w3.org/1999/xlink" x="0px" y="0px"
	 width="163.486px" height="163.486px" viewBox="0 0 163.486 163.486" enable-background="new 0 0 163.486 163.486"
	 xml:space="preserve">
<g>
	<defs>
		<rect id="SVGID_1_" width="163.486" height="163.486"/>
	</defs>
	<clipPath id="SVGID_2_">
		<use xlink:href="#SVGID_1_"  overflow="visible"/>
	</clipPath>
	<path clip-path="url(#SVGID_2_)" fill="#F7C9B1" d="M82.188,163.485C37.043,163.73,0.247,127.333,0.001,82.187
		C-0.245,37.042,36.154,0.246,81.298,0c45.146-0.245,81.941,36.152,82.187,81.298C163.73,126.444,127.332,163.24,82.188,163.485"/>
	<path clip-path="url(#SVGID_2_)" fill="#FFFFFF" d="M80.836,60.322c-5.846,5.91-19.471,19.684-25.317,25.594
		c-7.425,7.506-7.36,19.61,0.147,27.037c7.506,7.425,19.611,7.358,27.037-0.147c5.846-5.911,19.47-19.684,25.316-25.594
		c7.426-7.507,7.359-19.612-0.146-27.037C100.366,52.75,88.261,52.815,80.836,60.322"/>
	<path clip-path="url(#SVGID_2_)" fill="none" stroke="#EE6539" stroke-width="5" stroke-miterlimit="10" d="M80.836,60.322
		c-5.846,5.91-19.471,19.684-25.317,25.594c-7.425,7.506-7.36,19.61,0.147,27.037c7.506,7.425,19.611,7.358,27.037-0.147
		c5.846-5.911,19.47-19.684,25.316-25.594c7.426-7.507,7.359-19.612-0.146-27.037C100.366,52.75,88.261,52.815,80.836,60.322z"/>
	<path clip-path="url(#SVGID_2_)" fill="#FFFFFF" d="M83.228,70.916c-4.271,4.318-14.225,14.381-18.496,18.699
		c-5.425,5.484-5.377,14.327,0.107,19.752"/>
	<path clip-path="url(#SVGID_2_)" fill="none" stroke="#EE6539" stroke-width="5" stroke-miterlimit="10" d="M83.228,70.916
		c-4.271,4.318-14.225,14.381-18.496,18.699c-5.425,5.484-5.377,14.327,0.107,19.752"/>
	<path clip-path="url(#SVGID_2_)" fill="#FFFFFF" d="M134.91,60.028c-7.426,7.507-19.53,7.572-27.037,0.147
		c-7.506-7.425-7.572-19.53-0.147-27.037C114.92,40.254,126.769,51.976,134.91,60.028"/>
	<path clip-path="url(#SVGID_2_)" fill="none" stroke="#EE6539" stroke-width="5" stroke-miterlimit="10" d="M134.91,60.028
		c-7.426,7.507-19.53,7.572-27.037,0.147c-7.506-7.425-7.572-19.53-0.147-27.037C114.92,40.254,126.769,51.976,134.91,60.028z"/>
	<path clip-path="url(#SVGID_2_)" fill="#FFFFFF" d="M28.629,113.1c7.425-7.507,19.53-7.572,27.037-0.147
		c7.506,7.426,7.572,19.53,0.147,27.037C48.619,132.874,36.77,121.153,28.629,113.1"/>
	<path clip-path="url(#SVGID_2_)" fill="none" stroke="#EE6539" stroke-width="5" stroke-miterlimit="10" d="M28.629,113.1
		c7.425-7.507,19.53-7.572,27.037-0.147c7.506,7.426,7.572,19.53,0.147,27.037C48.619,132.874,36.77,121.153,28.629,113.1z"/>
</g>
</svg>
