<?xml version="1.0" encoding="utf-8"?>
<!-- Generator: Adobe Illustrator 15.1.0, SVG Export Plug-In . SVG Version: 6.00 Build 0)  -->
<!DOCTYPE svg PUBLIC "-//W3C//DTD SVG 1.1//EN" "http://www.w3.org/Graphics/SVG/1.1/DTD/svg11.dtd">
<svg version="1.1" id="Layer_1" xmlns="http://www.w3.org/2000/svg" xmlns:xlink="http://www.w3.org/1999/xlink" x="0px" y="0px"
	 width="138.947px" height="138.947px" viewBox="0 0 138.947 138.947" enable-background="new 0 0 138.947 138.947"
	 xml:space="preserve">
<rect x="0" fill="none" width="138.947" height="138.947"/>
<path fill="#FFFFFF" d="M39.98,55.443c-13.488,23.841,3.516,60.341,12.713,65.808c12.228,0.195,46.158-19.221,48.248-46.337
	c-9.885-0.044-21.119-1.86-32.606-5.621C57.446,65.728,47.771,60.888,39.98,55.443"/>
<path fill="#92D5EA" d="M52.879,123.753c-0.001,0-0.001,0-0.002,0l-0.89-0.013l-0.572-0.341
	c-5.608-3.334-12.333-14.885-15.986-27.465c-2.689-9.261-5.958-26.995,2.375-41.724l1.354-2.394l2.254,1.575
	c7.842,5.481,17.421,10.157,27.7,13.523c10.847,3.551,21.856,5.452,31.84,5.497l2.688,0.012l-0.207,2.681
	C101.267,103.212,66.842,123.753,52.879,123.753z M40.92,59.094c-10.044,21.867,4.294,53.738,12.498,59.646
	c10.677-0.553,40.866-17.004,44.721-41.381c-9.732-0.354-20.241-2.303-30.581-5.688C57.828,68.483,48.68,64.16,40.92,59.094z"/>
<path fill="#FFFFFF" d="M80.434,33.221c-23.728-7.77-39.473,4.379-46.959,17.614c9.644,6.741,21.624,12.733,35.103,17.146
	c14.223,4.659,28.131,6.907,40.371,6.959C110.103,59.951,104.093,40.969,80.434,33.221"/>
<path fill="#92D5EA" d="M111.263,77.451l-2.325-0.011c-12.935-0.056-27.158-2.506-41.14-7.084
	C54.559,66.022,42.195,59.98,32.043,52.884l-1.862-1.302l1.118-1.978c3.626-6.41,14.275-21.32,34.797-21.32
	c4.842,0,9.928,0.862,15.116,2.561c30.445,9.971,30.835,36.419,30.229,44.288L111.263,77.451z M36.838,50.104
	c9.378,6.25,20.568,11.589,32.519,15.501c12.628,4.136,25.435,6.471,37.206,6.796c0.133-8.833-2.438-28.792-26.906-36.805
	c-4.686-1.535-9.248-2.313-13.561-2.313C50.051,33.284,40.866,43.851,36.838,50.104z"/>
<path fill="#92D5EA" d="M54.613,106.896c-0.229-0.518-0.986-1.552-1.788-2.646c-3.943-5.387-12.146-16.593-8.104-33.747l4.865,1.146
	c-3.514,14.914,3.503,24.498,7.273,29.646c1.049,1.434,1.877,2.564,2.325,3.574L54.613,106.896z"/>
<path fill="#92D5EA" d="M80.476,44.76l-4.355-2.455c0.855-1.519,8.201-15.141,2.554-25.526l4.394-2.389
	C89.856,26.874,82.1,41.878,80.476,44.76z"/>
</svg>
