<?xml version="1.0" encoding="utf-8"?>
<!-- Generator: Adobe Illustrator 15.1.0, SVG Export Plug-In . SVG Version: 6.00 Build 0)  -->
<!DOCTYPE svg PUBLIC "-//W3C//DTD SVG 1.1//EN" "http://www.w3.org/Graphics/SVG/1.1/DTD/svg11.dtd">
<svg version="1.1" id="Layer_1" xmlns="http://www.w3.org/2000/svg" xmlns:xlink="http://www.w3.org/1999/xlink" x="0px" y="0px"
	 width="196.406px" height="90.449px" viewBox="0 0 196.406 90.449" enable-background="new 0 0 196.406 90.449"
	 xml:space="preserve">
<g>
	<defs>
		<rect id="SVGID_1_" y="0" width="196.406" height="90.449"/>
	</defs>
	<clipPath id="SVGID_2_">
		<use xlink:href="#SVGID_1_"  overflow="visible"/>
	</clipPath>
	<path clip-path="url(#SVGID_2_)" fill="#92D5EA" d="M1.185,69.401c0,0-1.178-59.249-0.987-65.588
		c3.492-1.176,15.87-1.766,15.87-1.766c18.124,0,20.049,17.283,19.655,34.063c-0.4,17.113-2.562,30.562-17.298,32.206
		C11.984,69.034,1.185,69.401,1.185,69.401 M25.056,34.802c0-13.289-2.21-22.292-8.546-21.851l-6.042,0.59l1.179,45.469
		c0,0,4.674-0.037,8.694-2.946C24.49,53.061,25.056,47.638,25.056,34.802"/>
	<polygon clip-path="url(#SVGID_2_)" fill="#92D5EA" points="40.167,66.589 40.895,3.89 50.858,5.434 52.25,64.485 	"/>
	<polygon clip-path="url(#SVGID_2_)" fill="#EE6539" points="67.077,52.954 57.064,1.522 68.118,0 71.137,30.026 75.602,0.834 
		85.211,2.246 76.408,54.102 	"/>
	<polygon clip-path="url(#SVGID_2_)" fill="#EE6539" points="96.015,54.102 88.149,0.833 98.646,0 101.034,30.072 105.095,1.522 
		115.575,3.179 105.884,54.102 	"/>
	<polygon clip-path="url(#SVGID_2_)" fill="#92D5EA" points="121.687,66.226 120.688,3.875 133.057,4.905 131.857,70.213 	"/>
	<polygon clip-path="url(#SVGID_2_)" fill="#92D5EA" points="138.519,70.837 139.439,6.278 163.896,5.539 164.836,13.733 
		150.497,16.853 150.497,31.254 163.915,32.525 163.418,41.172 150.497,42.691 149.571,59.371 163.896,58.815 163.896,68.859 	"/>
	<path clip-path="url(#SVGID_2_)" fill="#92D5EA" d="M168.544,62.846l4.711-8.246c1.974,3.054,4.021,6.541,7.911,6.228
		c3.408-0.272,4.039-2.903,4.039-6.655c0-10.292-21.609-16.1-16.661-34.364c2.423-8.942,6.675-13.951,12.766-13.951
		c7.213,0,11.648,3.41,14.188,6.463l-6.387,8.164c-1.833-2.356-3.1-3.403-5.565-3.403c-2.539,0-5.108,3.203-5.108,6.691
		c0,9.073,14.122,11.916,17.225,30.115c1.63,9.562-1.739,16.566-13.932,17.849C175.668,72.374,171.302,67.398,168.544,62.846"/>
	<path clip-path="url(#SVGID_2_)" fill="#EE6539" d="M63.341,56.789c7.422,4.907,12.005,9.258,23.04,9.024
		c9.544-0.2,16.965-2.188,23.799-8.41l3.5,7.272c-3.417,5.871-12.24,10.43-22.278,11.487c-11.556,1.219-23.056-2.11-32.306-14.904
		L63.341,56.789z"/>
	<polygon clip-path="url(#SVGID_2_)" fill="#EE6539" points="2.262,90.218 0,79.677 2.3,79.677 3.546,87.095 4.791,79.677 
		7.111,79.677 4.83,90.218 	"/>
	<polygon clip-path="url(#SVGID_2_)" fill="#EE6539" points="12.596,90.218 12.596,79.677 17.56,79.677 17.56,81.632 14.838,81.632 
		14.838,83.875 17.445,83.875 17.445,85.83 14.838,85.83 14.838,88.264 17.56,88.264 17.56,90.218 	"/>
	<path clip-path="url(#SVGID_2_)" fill="#EE6539" d="M23.312,84.948c0-3.238,1.111-5.5,3.584-5.5c1.591,0,2.473,1.17,2.875,2.646
		l-1.782,0.594c-0.211-0.71-0.48-1.265-1.093-1.265c-0.862,0-1.284,1.169-1.284,3.525c0,2.339,0.422,3.526,1.342,3.526
		c0.402,0,0.709-0.172,0.9-0.439v-1.744h-1.092v-1.84h3.105v4.579c-0.805,0.939-1.687,1.418-2.971,1.418
		C24.404,90.448,23.312,88.168,23.312,84.948"/>
	<path clip-path="url(#SVGID_2_)" fill="#EE6539" d="M39.99,79.678l2.28,10.541h-2.319l-0.287-1.898h-1.897l-0.307,1.898h-2.3
		l2.262-10.541H39.99z M38.706,82.208l-0.671,4.158h1.36L38.706,82.208z"/>
	<polygon clip-path="url(#SVGID_2_)" fill="#EE6539" points="52.028,90.218 49.997,84.22 49.997,90.218 47.755,90.218 
		47.755,79.677 50.035,79.677 51.932,85.408 51.932,79.677 54.174,79.677 54.174,90.218 	"/>
	<path clip-path="url(#SVGID_2_)" fill="#EE6539" d="M72.178,79.678l2.28,10.541h-2.319l-0.287-1.898h-1.897l-0.307,1.898h-2.3
		l2.262-10.541H72.178z M70.894,82.208l-0.671,4.158h1.36L70.894,82.208z"/>
	<polygon clip-path="url(#SVGID_2_)" fill="#EE6539" points="84.217,90.218 82.186,84.22 82.186,90.218 79.944,90.218 
		79.944,79.677 82.224,79.677 84.121,85.408 84.121,79.677 86.363,79.677 86.363,90.218 	"/>
	<path clip-path="url(#SVGID_2_)" fill="#EE6539" d="M92.731,90.219V79.677h2.875c2.682,0,3.851,2.262,3.851,5.271
		c0,3.028-1.131,5.271-3.833,5.271H92.731z M97.177,84.948c0-2.146-0.556-3.314-1.571-3.314h-0.633v6.63h0.633
		C96.64,88.263,97.177,87.038,97.177,84.948"/>
	<polygon clip-path="url(#SVGID_2_)" fill="#EE6539" points="117.479,90.218 115.447,84.22 115.447,90.218 113.205,90.218 
		113.205,79.677 115.485,79.677 117.383,85.408 117.383,79.677 119.624,79.677 119.624,90.218 	"/>
	<path clip-path="url(#SVGID_2_)" fill="#EE6539" d="M125.991,86.462v-6.785h2.242v7.303c0,1.016,0.345,1.494,1.016,1.494
		s1.016-0.498,1.016-1.494v-7.303h2.262v6.767c0,2.798-1.36,4.005-3.277,4.005C127.352,90.449,125.991,89.242,125.991,86.462"/>
	<polygon clip-path="url(#SVGID_2_)" fill="#EE6539" points="139.852,90.218 139.852,81.632 138.299,81.632 138.299,79.677 
		143.665,79.677 143.665,81.632 142.113,81.632 142.113,90.218 	"/>
	<polygon clip-path="url(#SVGID_2_)" fill="#EE6539" points="157.126,90.218 157.126,79.677 162.09,79.677 162.09,81.632 
		159.368,81.632 159.368,83.875 161.975,83.875 161.975,85.83 159.368,85.83 159.368,90.218 	"/>
	<path clip-path="url(#SVGID_2_)" fill="#EE6539" d="M172.021,90.218l-1.093-3.756h-0.575v3.756h-2.242V79.677h3.104
		c2.013,0,3.086,1.477,3.086,3.373c0,1.649-0.729,2.569-1.38,2.914l1.514,4.254H172.021z M172.002,83.071
		c0-0.824-0.346-1.438-1.073-1.438h-0.575v2.874h0.575C171.656,84.507,172.002,83.894,172.002,83.071"/>
	<polygon clip-path="url(#SVGID_2_)" fill="#EE6539" points="180.399,90.218 180.399,79.677 185.363,79.677 185.363,81.632 
		182.642,81.632 182.642,83.875 185.248,83.875 185.248,85.83 182.642,85.83 182.642,88.264 185.363,88.264 185.363,90.218 	"/>
	<polygon clip-path="url(#SVGID_2_)" fill="#EE6539" points="191.442,90.218 191.442,79.677 196.406,79.677 196.406,81.632 
		193.685,81.632 193.685,83.875 196.291,83.875 196.291,85.83 193.685,85.83 193.685,88.264 196.406,88.264 196.406,90.218 	"/>
</g>
</svg>
